<svg xmlns="http://www.w3.org/2000/svg" viewBox="0 0 53 53" fill="none"
    class="s-y_bCXRrkrYfP">
    <path fill-rule="evenodd" clip-rule="evenodd"
        d="M23.35 26.769C23.35 14.1599 23.4391 10.4349 23.6918 5.63838C23.7727 4.12719 23.8849 2.41274 24.0368 0.577148C23.5941 2.49126 23.09 4.04867 22.5805 5.60473C21.1771 9.92518 18.9897 14.2479 18.9897 26.769C18.9897 39.2871 21.1771 43.6116 22.5805 47.9369C23.09 49.4858 23.5941 51.0419 24.0368 52.9614C23.8849 51.12 23.7085 49.4508 23.6412 47.941C23.4816 44.3268 23.35 39.375 23.35 26.769Z"
        fill="#1b4584" class="s-y_bCXRrkrYfP"></path>
    <path fill-rule="evenodd" clip-rule="evenodd"
        d="M13.9857 26.6744C13.9857 13.9769 15.9547 8.48496 17.2947 5.39886C17.8563 4.11022 18.5503 2.58108 19.1769 1.07617C18.1104 2.74755 17.1437 4.12503 16.0781 5.63936C12.9865 10.0325 9.47485 14.2309 9.47485 26.674C9.47485 39.1135 12.8517 43.4115 16.0781 47.7082C17.1487 49.1359 18.2162 50.5628 19.1769 52.2646C18.5507 50.7647 13.9857 39.3715 13.9857 26.6744Z"
        fill="#1b4584" class="s-y_bCXRrkrYfP"></path>
    <path fill-rule="evenodd" clip-rule="evenodd"
        d="M4.35709 26.867C4.35709 14.0964 8.79059 8.45677 11.3916 5.3626C12.1711 4.43381 13.0003 3.50322 13.8069 2.55469L13.801 2.56007C13.2603 3.09805 10.0452 5.7911 10.0452 5.7911C5.00363 10.077 0 14.4795 0 26.867C0 39.2415 4.84403 43.6741 9.88744 47.9622C9.88744 47.9622 13.1445 50.6409 13.801 51.1627H13.8069C13.0003 50.2223 4.35709 39.6296 4.35709 26.867Z"
        fill="#1b4584" class="s-y_bCXRrkrYfP"></path>
    <path fill-rule="evenodd" clip-rule="evenodd"
        d="M28.5623 26.7681C28.5623 14.159 28.4728 10.4326 28.221 5.63704C28.1387 4.1254 28.0266 2.41319 27.8765 0.577148C28.3182 2.49261 28.8214 4.04598 29.3309 5.60473C30.7361 9.92383 32.9221 14.2479 32.9221 26.7681C32.9221 39.2871 30.7366 43.6124 29.3309 47.9374C28.8214 49.4858 28.3182 51.041 27.8765 52.96C28.0266 51.1186 28.2033 49.4513 28.2698 47.9419C28.4326 44.3268 28.5623 39.3737 28.5623 26.7681Z"
        fill="#1b4584" class="s-y_bCXRrkrYfP"></path>
    <path fill-rule="evenodd" clip-rule="evenodd"
        d="M37.9276 26.675C37.9276 13.9752 35.9586 8.48549 34.6176 5.39804C34.0566 4.11075 33.3612 2.58116 32.7368 1.07715C33.8029 2.74763 34.7686 4.12286 35.8352 5.63899C38.9259 10.0317 42.4384 14.2319 42.4384 26.6754C42.4384 39.1131 39.0602 43.4112 35.8352 47.7087C34.7623 49.1356 33.6971 50.5637 32.7368 52.2661C33.3616 50.7634 37.9276 39.372 37.9276 26.675Z"
        fill="#1b4584" class="s-y_bCXRrkrYfP"></path>
    <path fill-rule="evenodd" clip-rule="evenodd"
        d="M47.5553 26.8661C47.5553 14.095 43.1222 8.45542 40.5216 5.3617C39.7417 4.4347 38.9121 3.50232 38.1059 2.55469L38.1113 2.55917C38.6512 3.09671 41.8658 5.7893 41.8658 5.7893C46.9083 10.0752 51.9119 14.4787 51.9119 26.8657C51.9119 39.2415 47.0674 43.6727 42.024 47.96C42.024 47.96 38.7674 50.6391 38.1109 51.1627H38.1055C38.9121 50.2209 47.5553 39.6296 47.5553 26.8661Z"
        fill="#1b4584" class="s-y_bCXRrkrYfP"></path>
</svg>