<svg xmlns="http://www.w3.org/2000/svg" width="239" height="53" viewBox="0 0 239 53" fill="none"><path fill-rule="evenodd" clip-rule="evenodd" d="M23.35 26.769C23.35 14.1599 23.4391 10.4349 23.6918 5.63838C23.7727 4.12719 23.8849 2.41274 24.0368 0.577148C23.5941 2.49126 23.09 4.04867 22.5805 5.60473C21.1771 9.92518 18.9897 14.2479 18.9897 26.769C18.9897 39.2871 21.1771 43.6116 22.5805 47.9369C23.09 49.4858 23.5941 51.0419 24.0368 52.9614C23.8849 51.12 23.7085 49.4508 23.6412 47.941C23.4816 44.3268 23.35 39.375 23.35 26.769Z" fill="white"></path><path fill-rule="evenodd" clip-rule="evenodd" d="M13.9857 26.6744C13.9857 13.9769 15.9547 8.48496 17.2947 5.39886C17.8563 4.11022 18.5503 2.58108 19.1769 1.07617C18.1104 2.74755 17.1437 4.12503 16.0781 5.63936C12.9865 10.0325 9.47485 14.2309 9.47485 26.674C9.47485 39.1135 12.8517 43.4115 16.0781 47.7082C17.1487 49.1359 18.2162 50.5628 19.1769 52.2646C18.5507 50.7647 13.9857 39.3715 13.9857 26.6744Z" fill="white"></path><path fill-rule="evenodd" clip-rule="evenodd" d="M4.35709 26.867C4.35709 14.0964 8.79059 8.45677 11.3916 5.3626C12.1711 4.43381 13.0003 3.50322 13.8069 2.55469L13.801 2.56007C13.2603 3.09805 10.0452 5.7911 10.0452 5.7911C5.00363 10.077 0 14.4795 0 26.867C0 39.2415 4.84403 43.6741 9.88744 47.9622C9.88744 47.9622 13.1445 50.6409 13.801 51.1627H13.8069C13.0003 50.2223 4.35709 39.6296 4.35709 26.867Z" fill="white"></path><path fill-rule="evenodd" clip-rule="evenodd" d="M135.306 22.2709C134.878 23.1584 134.483 23.9755 134.091 24.7871C131.906 29.2844 129.726 33.7807 127.551 38.2856C127.417 38.5611 127.273 38.6849 126.935 38.6777C125.772 38.6526 124.613 38.662 123.447 38.6741C123.212 38.6741 123.084 38.6086 122.978 38.3838C120.471 33.1153 117.955 27.8504 115.441 22.5845C115.402 22.5015 115.384 22.4118 115.341 22.2749C116.535 22.2749 117.691 22.2637 118.848 22.2879C118.954 22.2888 119.095 22.4791 119.158 22.6096C120.382 25.173 121.605 27.7391 122.825 30.3065C123.61 31.9559 124.394 33.6026 125.213 35.3166C125.326 35.0949 125.427 34.9222 125.516 34.7458C127.469 30.7161 129.424 26.6914 131.37 22.6603C131.506 22.375 131.653 22.2543 131.986 22.261C133.071 22.2879 134.144 22.2709 135.306 22.2709Z" fill="white"></path><path d="M108.108 23.4366C106.327 22.4535 104.385 22.0874 102.902 22.043C100.411 22.0425 98.4637 22.5051 96.8221 23.3603C93.9258 24.8702 92.4003 27.5834 92.3054 30.3563H92.2959C92.2959 30.372 92.2995 30.3859 92.2995 30.4025C92.2995 30.4196 92.2959 30.4335 92.2959 30.4474H92.3054C92.3999 33.2199 93.9258 35.9344 96.8221 37.4443C98.4637 38.2986 100.411 38.7621 102.902 38.7607C104.385 38.7154 106.327 38.3489 108.108 37.3689C110.802 35.8882 112.245 33.2333 112.339 30.5201V30.2836C112.245 27.569 110.802 24.9177 108.108 23.4366ZM95.6249 30.4214C95.6249 30.4137 95.6217 30.4061 95.6217 30.4025C95.6217 30.4025 95.6249 30.3891 95.6249 30.3828V30.4214ZM109.019 30.6453C108.884 32.6016 107.756 33.9153 106.013 34.6799C103.53 35.7635 101.006 35.7599 98.5447 34.6153C96.7891 33.8023 95.7664 32.423 95.6371 30.508V30.2948C95.7668 28.3798 96.7891 26.9997 98.5447 26.1889C101.005 25.0456 103.53 25.0402 106.013 26.1256C107.756 26.8893 108.884 28.2039 109.019 30.1584V30.6453Z" fill="white"></path><path fill-rule="evenodd" clip-rule="evenodd" d="M182.071 29.0819C179.658 29.0819 177.305 29.0819 174.856 29.0819C174.856 27.9629 174.856 26.9031 174.856 25.7526C178.357 25.7526 181.885 25.7526 185.355 25.7526C185.355 28.3303 185.602 30.9036 185.246 33.3929C185.074 34.5649 183.935 35.8257 182.9 36.6159C177.553 40.7021 166.753 39.9959 163.077 31.5129C159.912 24.2087 164.763 15.9021 172.696 14.7929C177.187 14.1683 181.112 15.1469 184.425 18.2774C184.558 18.3999 184.686 18.5269 184.808 18.6606C184.852 18.7091 184.873 18.7813 184.973 18.9653C184.211 19.6571 183.417 20.3782 182.57 21.1481C181.117 19.5912 179.357 18.487 177.144 18.1092C173.085 17.4164 168.761 19.068 166.797 22.1523C163.505 27.3082 166.408 33.9646 172.525 35.2976C174.511 35.7302 176.484 35.7221 178.431 35.1119C181.7 34.0848 182.58 32.6553 182.071 29.0819Z" fill="white"></path><path fill-rule="evenodd" clip-rule="evenodd" d="M85.8148 38.3895C84.8251 38.3895 83.878 38.4631 82.9552 38.3559C82.5695 38.3097 82.145 37.9431 81.8814 37.6119C77.6979 32.4089 73.5407 27.1848 69.3725 21.9661C69.1162 21.6439 68.8363 21.3339 68.3761 20.7955C68.3761 26.7931 68.3761 32.5005 68.3761 38.2984C67.2218 38.2984 66.1634 38.2984 65.0408 38.2984C65.0408 30.6195 65.0408 22.9415 65.0408 15.1545C66.0241 15.1545 66.9722 15.0778 67.8918 15.19C68.2743 15.2344 68.6885 15.6194 68.9534 15.9536C73.1455 21.1988 77.3141 26.4602 81.4867 31.7162C81.7245 32.0168 81.9727 32.3057 82.4054 32.819C82.4054 26.8129 82.4054 21.0817 82.4054 15.2514C83.5859 15.2514 84.6502 15.2514 85.8144 15.2514C85.8148 22.885 85.8148 30.5594 85.8148 38.3895Z" fill="white"></path><path fill-rule="evenodd" clip-rule="evenodd" d="M203.453 31.899C204.781 34.0447 206.063 36.1185 207.463 38.3822C206.089 38.3822 204.882 38.4217 203.682 38.3499C203.419 38.336 203.114 37.9608 202.939 37.6867C201.875 36.0171 200.81 34.3417 199.811 32.634C199.453 32.0206 199.031 31.8048 198.332 31.8335C196.968 31.8838 195.598 31.8483 194.107 31.8483C194.107 34.0689 194.107 36.171 194.107 38.3333C192.986 38.3333 191.986 38.3333 190.897 38.3333C190.897 33.0181 190.897 27.7177 190.897 22.3325C191.218 22.3065 191.53 22.2625 191.846 22.2611C195.146 22.2571 198.443 22.2445 201.743 22.2665C204.556 22.2822 206.407 23.6552 206.933 26.0544C207.475 28.541 206.436 30.4255 203.835 31.6603C203.74 31.7052 203.657 31.7716 203.453 31.899ZM194.165 28.5482C196.924 28.5482 199.625 28.5581 202.327 28.5312C202.624 28.5285 203.059 28.3669 203.18 28.1453C203.438 27.6773 203.708 27.0935 203.636 26.6076C203.582 26.2455 203.005 25.6936 202.648 25.6847C199.84 25.6075 197.026 25.6443 194.165 25.6443C194.165 26.5785 194.165 27.5297 194.165 28.5482Z" fill="white"></path><path fill-rule="evenodd" clip-rule="evenodd" d="M221.998 22.2573C222.382 22.2573 222.739 22.2573 223.089 22.2573C225.52 22.2591 227.952 22.2151 230.381 22.2788C231.532 22.3066 232.72 22.391 233.817 22.7028C238.176 23.9583 239.355 27.9117 238.913 31.385C238.327 35.9222 235.405 38.3751 230.78 38.39C227.883 38.4021 224.984 38.3926 221.999 38.3926C221.998 33.0079 221.998 27.7057 221.998 22.2573ZM225.355 35.1706C227.076 35.1706 228.736 35.1787 230.391 35.1643C230.933 35.1616 231.478 35.1387 232.013 35.0647C232.366 35.0167 232.716 34.8911 233.042 34.7493C234.945 33.9466 235.903 32.063 235.637 29.6701C235.394 27.4904 234.33 25.932 232.423 25.7436C230.108 25.5157 227.751 25.6875 225.355 25.6875C225.355 28.7422 225.355 31.853 225.355 35.1706Z" fill="white"></path><path fill-rule="evenodd" clip-rule="evenodd" d="M215.234 38.3388C214.209 38.3388 213.247 38.3388 212.209 38.3388C212.209 32.9908 212.209 27.6945 212.209 22.3281C213.217 22.3281 214.18 22.3281 215.234 22.3281C215.234 27.6456 215.234 32.9388 215.234 38.3388Z" fill="white"></path><path d="M153.109 23.1146C151.324 22.1333 149.382 21.765 147.899 21.7188C145.41 21.7188 143.463 22.18 141.818 23.037C138.923 24.5455 137.401 27.2601 137.3 30.0308H137.294C137.294 30.0474 137.296 30.0604 137.296 30.0783C137.296 30.094 137.294 30.1106 137.294 30.125H137.3C137.401 32.8952 138.923 35.6089 141.818 37.1196C143.464 37.9775 145.41 38.4397 147.899 38.4379C149.382 38.3926 151.324 38.0251 153.109 37.0433C155.799 35.5645 157.242 32.9113 157.336 30.1986V29.9599C157.242 27.2471 155.799 24.5935 153.109 23.1146ZM140.624 30.0972C140.624 30.0972 140.622 30.0846 140.622 30.0783L140.624 30.0586V30.0972ZM154.014 30.3228C153.88 32.2747 152.755 33.5907 151.009 34.3539C148.53 35.4406 146.003 35.4325 143.54 34.292C141.789 33.4807 140.764 32.0997 140.634 30.1847V29.9706C140.764 28.0579 141.789 26.6777 143.54 25.8642C146.002 24.7227 148.53 24.7183 151.009 25.8014C152.754 26.566 153.88 27.8784 154.014 29.8324V30.3228Z" fill="white"></path><path fill-rule="evenodd" clip-rule="evenodd" d="M28.5623 26.7681C28.5623 14.159 28.4728 10.4326 28.221 5.63704C28.1387 4.1254 28.0266 2.41319 27.8765 0.577148C28.3182 2.49261 28.8214 4.04598 29.3309 5.60473C30.7361 9.92383 32.9221 14.2479 32.9221 26.7681C32.9221 39.2871 30.7366 43.6124 29.3309 47.9374C28.8214 49.4858 28.3182 51.041 27.8765 52.96C28.0266 51.1186 28.2033 49.4513 28.2698 47.9419C28.4326 44.3268 28.5623 39.3737 28.5623 26.7681Z" fill="white"></path><path fill-rule="evenodd" clip-rule="evenodd" d="M37.9276 26.675C37.9276 13.9752 35.9586 8.48549 34.6176 5.39804C34.0566 4.11075 33.3612 2.58116 32.7368 1.07715C33.8029 2.74763 34.7686 4.12286 35.8352 5.63899C38.9259 10.0317 42.4384 14.2319 42.4384 26.6754C42.4384 39.1131 39.0602 43.4112 35.8352 47.7087C34.7623 49.1356 33.6971 50.5637 32.7368 52.2661C33.3616 50.7634 37.9276 39.372 37.9276 26.675Z" fill="white"></path><path fill-rule="evenodd" clip-rule="evenodd" d="M47.5553 26.8661C47.5553 14.095 43.1222 8.45542 40.5216 5.3617C39.7417 4.4347 38.9121 3.50232 38.1059 2.55469L38.1113 2.55917C38.6512 3.09671 41.8658 5.7893 41.8658 5.7893C46.9083 10.0752 51.9119 14.4787 51.9119 26.8657C51.9119 39.2415 47.0674 43.6727 42.024 47.96C42.024 47.96 38.7674 50.6391 38.1109 51.1627H38.1055C38.9121 50.2209 47.5553 39.6296 47.5553 26.8661Z" fill="white"></path></svg>